<svg id="Lager_2" data-name="Lager 2" xmlns="http://www.w3.org/2000/svg" viewBox="0 0 1366 768"><defs><style>.cls-1{fill:#363c49;}.cls-2{fill:#4c566a;}.cls-3{fill:#3b4252;}</style></defs><title>Namnlöst-2</title><polyline class="cls-1" points="252 768 614 768 389 435"/><polyline class="cls-2" points="499.96 768 614 768 389 435"/><polyline class="cls-1" points="741 768 1085 768 913 404"/><polyline class="cls-2" points="1014.44 768 1085 768 913 404"/><polyline class="cls-3" points="433 768 881 768 628 323"/><polyline class="cls-2" points="757 768 881 768 628 323"/><polyline class="cls-3" points="1068 499 960 768 1253 768"/><polyline class="cls-2" points="1068 499 1188.54 768 1253 768"/><polyline class="cls-3" points="114 768 233 548 390 768"/><polyline class="cls-2" points="320.36 768 232.81 548.21 390.07 768.21"/></svg>