<svg xmlns="http://www.w3.org/2000/svg" viewBox="0 0 1366 519"><defs><style>.cls-1{fill:#d8dee9;}.cls-2{fill:#424a59;}.cls-3{fill:#4c566a;}.cls-4{fill:#3b4252;}.cls-5{fill:#363d49;}.cls-6{fill:#2e3440;}</style></defs><title>Resurs 9</title><g id="Lager_2" data-name="Lager 2"><g id="Lager_2-2" data-name="Lager 2"><polyline class="cls-1" points="222 385 1158 385 671.77 519"/><polyline class="cls-2" points="451.45 269.08 670.34 269.08 534.29 67.72"/><polyline class="cls-3" points="601.38 269.08 670.34 269.08 534.29 67.72"/><polyline class="cls-2" points="747.14 269.08 955.15 269.08 851.14 48.98"/><polyline class="cls-3" points="912.48 269.08 955.15 269.08 851.14 48.98"/><polyline class="cls-4" points="560.89 269.08 831.79 269.08 678.81 0"/><polyline class="cls-3" points="756.81 269.08 831.79 269.08 678.81 0"/><polyline class="cls-2" points="944.87 106.42 879.56 269.08 1056.73 269.08"/><polyline class="cls-3" points="944.87 106.42 1017.76 269.08 1056.73 269.08"/><path class="cls-1" d="M1366,388H0V293H1366Z"/><polyline class="cls-2" points="368 269.08 439.96 136.05 534.89 269.08"/><polyline class="cls-3" points="492.78 269.08 439.85 136.18 534.94 269.21"/><polyline class="cls-4" points="0 297 323.41 220 622.08 268 838.29 220 1018.77 268 1173.61 211 1366 280"/><polyline class="cls-5" points="0 220 466.22 263.21 670 242 1069 283 1366 220 1366 299 0 307"/><polyline class="cls-4" points="0 339 455.96 427.94 0 414.5"/><polyline class="cls-6" points="0 188 323 463 0 401.63"/><polyline class="cls-4" points="962 424 1366 331 1366 424"/><polyline class="cls-6" points="1366 188 1016 505 1366 426.04"/></g></g></svg>