<svg xmlns="http://www.w3.org/2000/svg" viewBox="0 0 1139 445.21"><defs><style>.cls-1{fill:#363c49;}.cls-2{fill:#4c566a;}.cls-3{fill:#3b4252;}</style></defs><title>Resurs 1</title><g id="Lager_2" data-name="Lager 2"><g id="Lager_1-2" data-name="Lager 1"><polyline class="cls-1" points="138 445 500 445 275 112"/><polyline class="cls-2" points="385.96 445 500 445 275 112"/><polyline class="cls-1" points="627 445 971 445 799 81"/><polyline class="cls-2" points="900.44 445 971 445 799 81"/><polyline class="cls-3" points="319 445 767 445 514 0"/><polyline class="cls-2" points="643 445 767 445 514 0"/><polyline class="cls-3" points="954 176 846 445 1139 445"/><polyline class="cls-2" points="954 176 1074.54 445 1139 445"/><polyline class="cls-3" points="0 445 119 225 276 445"/><polyline class="cls-2" points="206.36 445 118.81 225.21 276.07 445.21"/></g></g></svg>